<svg width="264" height="328" viewBox="0 0 264 328" fill="none" xmlns="http://www.w3.org/2000/svg">
  <style>
    /* Default (Light Mode) Styling */
    .rails {
      fill: #191917; 
    }
    
    /* Dark Mode Styling */
    @media (prefers-color-scheme: dark) {
      .rails {
        fill: #ffffff;
      }
    }
  </style>
<path class="rails" fill-rule="evenodd" clip-rule="evenodd" d="M262.36 310.785C265.32 315.773 264.162 322.544 259.773 325.908C255.385 329.272 249.427 327.956 246.467 322.969L235.317 304.183C235.256 304.184 235.195 304.186 235.134 304.186H28.6795L17.5321 322.969C14.5719 327.956 8.61504 329.272 4.22641 325.908C-0.162264 322.544 -1.32063 315.773 1.63949 310.785L50.908 227.771H74.0311L67.4715 238.823H196.528L189.969 227.771H213.092L262.36 310.785ZM41.6102 282.397H222.389L207.61 257.498H56.3885L41.6102 282.397Z"/>
<path fill-rule="evenodd" clip-rule="evenodd" d="M187.912 0C215.913 4.01774e-05 238.613 22.6994 238.613 50.7004V192.662C238.613 205.262 228.398 215.477 215.798 215.477H48.4863C35.886 215.477 25.6714 205.262 25.6711 192.662V50.7004C25.6711 22.6994 48.3705 0 76.3715 0H187.912ZM66.4097 146.505C57.3094 146.505 49.9321 153.883 49.9321 162.983C49.9321 172.083 57.3094 179.46 66.4097 179.46C75.51 179.46 82.8873 172.083 82.8873 162.983C82.8873 153.883 75.51 146.505 66.4097 146.505ZM198.231 146.505C189.13 146.505 181.753 153.883 181.753 162.983C181.753 172.083 189.13 179.46 198.231 179.46C207.331 179.46 214.708 172.083 214.708 162.983C214.708 153.883 207.331 146.505 198.231 146.505ZM60.0721 47.6394C54.4719 47.6394 49.9321 52.1792 49.9321 57.7794V107.212C49.9321 112.813 54.4719 117.352 60.0721 117.352H204.568C210.168 117.352 214.708 112.813 214.708 107.212V57.7794C214.708 52.1792 210.168 47.6394 204.568 47.6394H60.0721ZM101.9 14.6841C96.9998 14.6841 93.0274 18.6565 93.0274 23.5566C93.0274 28.4568 96.9998 32.4292 101.9 32.4292H162.74C167.641 32.4292 171.613 28.4568 171.613 23.5566C171.613 18.6565 167.641 14.6841 162.74 14.6841H101.9Z" fill="#32CD66"/>
</svg>
